<svg width="399" height="397" viewBox="0 0 399 397" fill="none" xmlns="http://www.w3.org/2000/svg">
<rect width="398.106" height="396.337" rx="80" fill="white"/>
<path d="M167.69 42.8951C87.0524 59.3813 30.8504 136.521 41.2355 216.509C49.3808 279.808 89.0887 328.86 149.363 349.62C167.69 355.93 170.337 356.133 198.235 356.337C232.037 356.337 246.291 353.08 273.578 338.833C339.554 304.436 372.949 225.465 351.772 153.617C338.943 109.858 301.068 68.3368 258.916 51.4435C231.019 40.2492 196.198 36.9926 167.69 42.8951ZM191.311 75.4605C194.162 78.3099 197.013 80.5488 197.624 80.5488C198.235 80.5488 200.882 78.3099 203.529 75.4605C209.027 69.3545 210.86 69.1509 215.136 73.8322C222.263 81.77 221.245 86.6548 209.231 107.415L197.42 127.158L193.551 120.645C175.428 91.3361 172.984 83.6018 179.093 74.8499C182.962 69.1509 184.999 69.1509 191.311 75.4605ZM222.263 121.052C221.652 131.229 220.023 134.689 210.86 147.715C204.954 156.06 200.271 163.998 200.271 165.422C200.271 173.971 188.053 160.334 179.501 142.627C173.799 130.415 172.17 118.813 175.835 113.114C178.075 109.451 177.261 108.636 189.071 126.954C199.864 144.051 198.235 144.458 211.267 120.645C215.543 113.114 219.819 107.619 221.041 108.229C222.263 109.044 222.67 114.539 222.263 121.052ZM234.684 145.883C239.368 167.254 233.259 182.112 212.896 200.227L199.049 212.642L181.537 197.581C171.966 189.439 162.803 179.466 160.97 175.599C156.694 166.644 156.49 154.024 160.563 144.255C164.228 135.503 162.803 134.078 180.926 165.015C187.442 176.21 193.958 186.997 195.18 189.032C197.42 192.289 199.66 189.236 213.507 162.98C222.059 146.697 229.797 133.875 230.815 134.485C231.834 135.096 233.463 140.184 234.684 145.883ZM248.939 199.819C245.477 208.978 240.997 215.288 229.797 226.482C221.652 234.624 213.914 241.34 212.489 241.34C211.267 241.34 215.34 234.013 221.448 225.261C227.761 216.509 232.852 208.571 232.852 207.961C232.852 201.855 213.507 219.155 207.194 230.96L202.104 240.323L203.325 232.181C205.362 219.359 209.841 212.846 228.779 194.324C240.182 183.13 247.513 174.174 249.346 169.086L252.197 161.352L252.808 174.581C253.215 184.351 252.197 190.864 248.939 199.819ZM146.309 187.2C149.567 190.457 158.527 196.97 166.061 201.855C180.111 210.81 188.664 221.191 191.311 232.181C192.737 237.88 192.329 237.677 185.813 229.128C178.89 220.173 162.599 209.182 159.952 211.624C159.341 212.439 165.043 219.359 172.781 227.093C180.519 235.031 186.017 241.34 184.795 241.34C180.519 241.34 158.527 225.668 151.603 217.934C143.051 208.164 135.924 192.289 134.498 180.28C133.48 171.121 133.48 171.121 136.738 176.21C138.571 179.059 142.847 183.944 146.309 187.2ZM281.723 209.793C281.723 223.429 274.392 238.694 263.193 248.26C250.975 258.641 207.602 284.693 206.787 282.047C205.565 278.587 222.467 259.862 230.612 255.588C234.684 253.349 241.608 248.464 246.088 244.393L254.233 237.066L246.088 240.933C241.608 243.172 234.277 246.022 229.797 247.446C225.317 248.871 218.598 253.349 214.729 257.419C208.212 264.543 208.009 264.543 211.267 258.641C215.95 249.685 220.227 245.207 233.87 234.624C240.59 229.535 253.418 218.545 262.378 210.2C272.763 200.43 279.279 195.749 280.094 197.377C280.909 198.598 281.723 204.094 281.723 209.793ZM119.43 207.554C122.484 212.642 128.797 219.969 133.276 224.04C141.014 230.96 156.898 239.305 162.396 239.305C163.821 239.305 169.319 241.544 175.021 244.393C185.609 249.685 193.144 258.641 195.18 268.817L196.402 274.923L192.126 269.224C186.22 261.897 179.704 258.641 154.25 250.499C135.516 244.597 133.48 244.393 135.313 247.65C138.367 253.349 150.585 260.88 166.672 266.782C181.944 272.481 188.664 277.569 193.551 286.932L196.606 292.631L188.664 286.525C181.13 280.622 173.392 277.366 151.4 270.853C145.291 269.021 135.924 264.543 130.833 260.676C114.135 248.668 104.768 222.615 109.859 203.076C111.692 196.766 112.913 197.377 119.43 207.554ZM309.009 225.872C313.286 234.827 313.082 248.26 308.806 260.676C304.53 273.295 290.886 287.135 275.41 294.666C266.043 299.347 212.081 318.683 209.027 318.683C208.416 318.683 209.027 317.258 210.656 315.427C213.71 311.559 232.648 301.993 244.051 298.33C256.473 294.463 270.116 287.135 274.596 281.844C277.447 278.791 277.65 277.569 275.614 278.383C273.985 279.198 257.898 285.711 240.182 293.038C222.263 300.365 207.398 306.064 206.787 305.657C205.565 304.232 211.471 296.294 216.358 293.038C218.598 291.41 232.444 284.082 247.106 276.959C282.334 259.455 294.348 246.836 298.828 222.412C300.457 213.456 303.511 214.474 309.009 225.872ZM94.1794 232.181C97.6412 243.986 111.284 259.251 124.113 265.561C129.611 268.41 141.014 272.684 149.567 274.923C174.817 282.047 190.7 293.648 195.18 308.099C196.402 311.966 193.958 310.949 180.926 301.586C169.523 293.445 162.396 289.781 153.843 288.153C147.531 286.728 135.516 282.658 127.371 278.994C111.081 271.463 110.47 273.092 124.317 286.728C130.833 293.038 135.72 295.277 151.603 299.551C161.988 302.4 174.613 306.878 179.501 309.728C188.664 315.019 202.307 333.337 198.235 334.559C197.013 334.966 188.868 330.692 180.111 324.993C170.948 318.887 155.676 311.356 144.069 307.285C110.877 295.48 100.899 287.746 91.125 266.782C87.4596 259.251 86.2379 252.942 86.2379 242.969C86.2379 221.394 89.6996 216.713 94.1794 232.181Z" fill="#F15A29"/>
</svg>
