<svg width="595" height="1023" viewBox="0 0 595 1023" fill="none" xmlns="http://www.w3.org/2000/svg">
<path d="M355.535 707.612C285.569 753.275 282.911 754.208 280.782 744.063C279.441 738.521 273.341 700.952 267.086 660.942L256.271 588.154L240.09 590.09C231.008 591.009 221.528 593.429 218.394 594.642C215.537 596.326 222.511 632.113 233.839 674.2C245.445 716.757 253.449 753.204 252.375 755.736C251.024 757.799 212.802 754.991 167.445 748.788L85.4938 738.185L83.3273 758.46C81.8456 770.099 83.2211 780.054 86.2339 780.812C89.7228 781.289 128.621 783.065 173.19 784.666L254.398 787.475L215.638 865.411L176.602 942.876L194.635 950.615C205.058 955.238 214.849 957.701 216.754 956.579C218.183 955.737 232.939 919.81 249.012 877.408C265.085 835.006 280.196 800.771 282.256 802.09C284.594 803.879 312.2 830.041 344.082 861.282C375.688 892.054 403.892 915.964 406.749 914.28C409.329 912.127 416.039 905.006 421.243 897.506L430.777 884.289L366.283 833.634C330.669 805.858 300.206 781.38 299.098 779.5C296.882 775.739 315.055 766.297 414.925 716.945L450.873 699.561L439.239 679.819L427.883 660.547L355.535 707.612Z" fill="#F15A29"/>
<path d="M331.78 102.03C307.44 150.672 306.252 152.069 301.724 147.065C299.151 144.389 283.387 125.272 266.734 104.834L236.757 67.4657L228.296 73.8667C223.492 77.3649 218.957 81.838 217.594 83.5493C216.54 85.4339 232.211 103.262 252.397 123.203C272.894 143.316 289.36 161.177 289.588 162.953C289.506 164.556 267.096 175.528 239.562 186.932L190.011 207.878L195.45 219.987C198.438 227.016 202.48 232.161 204.422 231.598C206.54 230.721 228.991 218.948 254.571 205.215L301.145 180.132L304.944 236.67L308.433 293.034L321.111 291.464C328.489 290.641 334.802 288.811 335.504 287.555C336.031 286.612 332.531 261.571 327.645 232.457C322.759 203.343 320.013 179.136 321.605 179.201C323.506 179.439 347.615 185.083 375.795 192.178C403.666 199.1 427.371 203.281 428.425 201.396C429.168 199.339 430.602 193.132 431.066 187.208L432.085 176.648L379.198 169.346C350.058 165.424 324.896 161.665 323.655 160.972C321.175 159.586 328.291 148.311 368.231 87.7774L382.732 66.2024L369.71 58.9236L356.998 51.8181L331.78 102.03Z" fill="#F15A29"/>
<path d="M437.976 391.397C310.883 407.16 306.594 406.654 310.494 391.252C312.38 382.716 329.279 326.876 347.608 267.569L381.731 160.058L358.146 151.827C345.021 146.977 330.337 143.925 325.204 143.486C320.136 143.881 305.641 197.856 292.899 263.439C280.222 329.855 266.702 385.432 263.518 388.197C260.269 390.127 209.526 360.523 151.247 321.438L45.5392 251.652L28.9028 278.112C19.025 293.141 14.2153 307.776 17.8536 310.848C22.3366 313.855 74.7038 342.494 134.998 374.711L244.93 433.263L139.077 514.481L33.1586 594.865L52.7789 617.664C64.0182 631.05 75.8427 641.035 79.2215 640.772C81.7555 640.575 126.268 601.04 176.953 553.476C227.639 505.911 271.501 468.944 273.45 472.147C275.464 476.185 295.861 530.8 318.725 595.29C341.525 658.945 364.261 710.862 369.329 710.467C374.333 709.239 388.368 703.953 400.584 697.13L422.612 685.35L367.914 572.168C337.577 509.938 312.112 455.717 311.853 452.382C311.334 445.711 342.717 444.947 513.472 444.24L574.679 444.51L571.953 409.491L569.293 375.305L437.976 391.397Z" fill="#282A2C"/>
</svg>
